<svg xmlns="http://www.w3.org/2000/svg" version="1.1" xmlns:xlink="http://www.w3.org/1999/xlink" xmlns:svgjs="http://svgjs.dev/svgjs" width="1500" height="1500" viewBox="0 0 1500 1500"><rect width="1500" height="1500" fill="#000000"></rect><g transform="matrix(0.6666666666666666,0,0,0.6666666666666666,249.39393939393938,582.7067299126898)"><svg viewBox="0 0 396 132" data-background-color="#ffffff" preserveAspectRatio="xMidYMid meet" height="500" width="1500" xmlns="http://www.w3.org/2000/svg" xmlns:xlink="http://www.w3.org/1999/xlink"><g id="tight-bounds" transform="matrix(1,0,0,1,0.2400000000000091,0.24813495457485146)"><svg viewBox="0 0 395.52 131.50351292558176" height="131.50351292558176" width="395.52"><g><svg viewBox="0 0 654.8452423403282 217.7246404489206" height="131.50351292558176" width="395.52"><g transform="matrix(1,0,0,1,259.3252423403282,37.1801969792527)"><svg viewBox="0 0 395.52 143.3642464904152" height="143.3642464904152" width="395.52"><g id="textblocktransform"><svg viewBox="0 0 395.52 143.3642464904152" height="143.3642464904152" width="395.52" id="textblock"><g><rect width="163.310208" height="7.945714961258849" y="122.1636634834521" x="232.209792" fill="#ffffff" data-fill-palette-color="tertiary"></rect></g><g><svg viewBox="0 0 395.52 88.10849449204406" height="88.10849449204406" width="395.52"><g transform="matrix(1,0,0,1,0,0)"><svg width="395.52" viewBox="4 -35.7 163.39 36.400000000000006" height="88.10849449204406" data-palette-color="#000000"><path d="M33.2-16.6L23.95-16.6 23.95-17.8 36.6-17.8 36.6-4.2Q34.3-1.9 30.98-0.6 27.65 0.7 23.55 0.7L23.55 0.7Q19.35 0.7 15.8-0.68 12.25-2.05 9.6-4.53 6.95-7 5.48-10.3 4-13.6 4-17.5L4-17.5Q4-21.4 5.48-24.7 6.95-28 9.6-30.48 12.25-32.95 15.8-34.33 19.35-35.7 23.55-35.7L23.55-35.7Q25.35-35.7 27.48-35.45 29.6-35.2 31.55-34.77 33.5-34.35 34.85-33.75L34.85-33.75 34.6-30.95 34.3-30.95Q32.3-32.7 29.5-33.6 26.7-34.5 23.55-34.5L23.55-34.5Q18.85-34.5 15.3-32.38 11.75-30.25 9.78-26.43 7.8-22.6 7.8-17.5L7.8-17.5Q7.8-12.4 9.78-8.58 11.75-4.75 15.3-2.63 18.85-0.5 23.55-0.5L23.55-0.5Q26.45-0.5 28.93-1.3 31.4-2.1 33.2-3.6L33.2-3.6 33.2-16.6ZM48.1 0L48.1-35 54.8-35Q60.1-35 63.02-32.77 65.95-30.55 65.95-26.55L65.95-26.55Q65.95-23.45 64.12-21.4 62.3-19.35 58.85-18.65L58.85-18.65 58.85-18.35Q62.15-17.7 64.25-15.25 66.35-12.8 67.4-9.2L67.4-9.2Q68.35-5.9 69.27-4.08 70.2-2.25 71.32-1.45 72.45-0.65 74-0.3L74-0.3 74 0 71.95 0Q69.75 0 68.32-0.8 66.9-1.6 65.9-3.5 64.9-5.4 64-8.75L64-8.75Q62.55-13.9 60.15-16.05 57.75-18.2 54.3-18.2L54.3-18.2 54-18.2 54-19.1 54.3-19.1Q62.35-19.1 62.35-26.5L62.35-26.5Q62.35-33.8 54.8-33.8L54.8-33.8 51.5-33.8 51.5 0 48.1 0ZM80.15 0L76.5 0 89.95-35 93.05-35 106.5 0 102.85 0 96.65-16.4 85.3-16.4 80.15 0ZM90.6-32.4L90.3-32.4 85.65-17.6 96.2-17.6 90.6-32.4ZM141.69-4.3L141.99-4.3 141.69-1.25Q140.29-0.65 138.29-0.2 136.29 0.25 134.24 0.48 132.19 0.7 130.59 0.7L130.59 0.7Q126.54 0.7 123.09-0.68 119.64-2.05 117.07-4.5 114.49-6.95 113.04-10.28 111.59-13.6 111.59-17.5L111.59-17.5Q111.59-21.4 113.04-24.73 114.49-28.05 117.07-30.5 119.64-32.95 123.09-34.33 126.54-35.7 130.59-35.7L130.59-35.7Q132.24-35.7 134.29-35.45 136.34-35.2 138.29-34.77 140.24-34.35 141.59-33.8L141.59-33.8 141.34-31 141.04-31Q139.19-32.7 136.39-33.6 133.59-34.5 130.59-34.5L130.59-34.5Q126.09-34.5 122.67-32.38 119.24-30.25 117.32-26.43 115.39-22.6 115.39-17.5L115.39-17.5Q115.39-12.35 117.32-8.55 119.24-4.75 122.64-2.63 126.04-0.5 130.59-0.5L130.59-0.5Q133.99-0.5 136.92-1.6 139.84-2.7 141.69-4.3L141.69-4.3ZM167.39 0L151.99 0 151.99-35 167.24-35 167.24-32.55 158.49-33.7Q156.19-34 155.39-34L155.39-34 155.39-18.75Q156.04-18.75 158.49-18.9L158.49-18.9 166.69-19.4 166.69-17.1 158.49-17.6Q156.04-17.75 155.39-17.75L155.39-17.75 155.39-1Q156.29-1 158.54-1.3L158.54-1.3 167.39-2.45 167.39 0Z" opacity="1" transform="matrix(1,0,0,1,0,0)" fill="#ffffff" class="wordmark-text-0" data-fill-palette-color="primary" id="text-0"></path></svg></g></svg></g><g transform="matrix(1,0,0,1,0,108.90879543774786)"><svg viewBox="0 0 232.209792 34.45545105266735" height="34.45545105266735" width="232.209792"><g transform="matrix(1,0,0,1,8,0)"><svg width="216.209792" viewBox="0.4 -35.95 294.27000000000004 46.900000000000006" height="34.45545105266735" data-palette-color="#111111"><path d="M9.4-19.4L9.4-19.4 7.3-13.25 19-13.25 16.9-19.4Q15.9-22.35 15-25.05 14.1-27.75 13.25-30.8L13.25-30.8 13.05-30.8Q12.2-27.75 11.3-25.05 10.4-22.35 9.4-19.4ZM2.7 0L0.4 0 12-32.95 14.3-32.95 25.9 0 23.5 0 19.65-11.3 6.6-11.3 2.7 0ZM33.85 0.6L33.85 0.6Q30.9 0.6 30.9-3.2L30.9-3.2 30.9-35.95 33.1-35.95 33.1-2.9Q33.1-2.1 33.4-1.73 33.7-1.35 34.15-1.35L34.15-1.35Q34.3-1.35 34.47-1.35 34.65-1.35 35.05-1.45L35.05-1.45 35.45 0.35Q35.1 0.45 34.75 0.53 34.4 0.6 33.85 0.6ZM45.7 0.6L45.7 0.6Q42.75 0.6 42.75-3.2L42.75-3.2 42.75-35.95 44.95-35.95 44.95-2.9Q44.95-2.1 45.25-1.73 45.55-1.35 46-1.35L46-1.35Q46.15-1.35 46.32-1.35 46.5-1.35 46.9-1.45L46.9-1.45 47.3 0.35Q46.95 0.45 46.6 0.53 46.25 0.6 45.7 0.6ZM73.69 0.6L73.69 0.6Q71.39 0.6 69.37-0.25 67.34-1.1 65.84-2.73 64.34-4.35 63.47-6.68 62.59-9 62.59-11.95L62.59-11.95Q62.59-14.9 63.47-17.25 64.34-19.6 65.82-21.23 67.29-22.85 69.17-23.73 71.04-24.6 73.04-24.6L73.04-24.6Q77.34-24.6 79.79-21.7 82.24-18.8 82.24-13.5L82.24-13.5Q82.24-13.05 82.24-12.6 82.24-12.15 82.14-11.7L82.14-11.7 64.84-11.7Q64.89-9.45 65.54-7.53 66.19-5.6 67.37-4.23 68.54-2.85 70.19-2.08 71.84-1.3 73.89-1.3L73.89-1.3Q75.84-1.3 77.42-1.88 78.99-2.45 80.34-3.45L80.34-3.45 81.24-1.75Q79.79-0.9 78.07-0.15 76.34 0.6 73.69 0.6ZM64.84-13.5L64.84-13.5 80.14-13.5Q80.14-18.15 78.24-20.43 76.34-22.7 73.09-22.7L73.09-22.7Q71.54-22.7 70.14-22.08 68.74-21.45 67.62-20.25 66.49-19.05 65.77-17.35 65.04-15.65 64.84-13.5ZM88.39 10.95L88.39 10.95Q87.04 10.95 85.94 10.45L85.94 10.45 86.44 8.5Q86.84 8.65 87.34 8.78 87.84 8.9 88.39 8.9L88.39 8.9Q90.64 8.9 92.14 7.1 93.64 5.3 94.54 2.55L94.54 2.55 95.19 0.45 85.34-24 87.74-24 93.54-8.9Q94.09-7.4 94.76-5.6 95.44-3.8 96.14-2.2L96.14-2.2 96.34-2.2Q96.89-3.8 97.46-5.6 98.04-7.4 98.54-8.9L98.54-8.9 103.69-24 105.94-24 96.44 3Q95.94 4.5 95.21 5.95 94.49 7.4 93.51 8.5 92.54 9.6 91.26 10.28 89.99 10.95 88.39 10.95ZM120.24 0.6L120.24 0.6Q117.94 0.6 115.91-0.25 113.89-1.1 112.39-2.73 110.89-4.35 110.01-6.68 109.14-9 109.14-11.95L109.14-11.95Q109.14-14.9 110.01-17.25 110.89-19.6 112.36-21.23 113.84-22.85 115.71-23.73 117.59-24.6 119.59-24.6L119.59-24.6Q123.89-24.6 126.34-21.7 128.79-18.8 128.79-13.5L128.79-13.5Q128.79-13.05 128.79-12.6 128.79-12.15 128.69-11.7L128.69-11.7 111.39-11.7Q111.44-9.45 112.09-7.53 112.74-5.6 113.91-4.23 115.09-2.85 116.74-2.08 118.39-1.3 120.44-1.3L120.44-1.3Q122.39-1.3 123.96-1.88 125.54-2.45 126.89-3.45L126.89-3.45 127.79-1.75Q126.34-0.9 124.61-0.15 122.89 0.6 120.24 0.6ZM111.39-13.5L111.39-13.5 126.69-13.5Q126.69-18.15 124.79-20.43 122.89-22.7 119.64-22.7L119.64-22.7Q118.09-22.7 116.69-22.08 115.29-21.45 114.16-20.25 113.04-19.05 112.31-17.35 111.59-15.65 111.39-13.5ZM141.08 0.6L141.08 0.6Q138.38 0.6 136.13-0.38 133.88-1.35 132.28-2.7L132.28-2.7 133.58-4.35Q135.13-3.05 136.88-2.18 138.63-1.3 141.23-1.3L141.23-1.3Q144.08-1.3 145.51-2.73 146.93-4.15 146.93-6.05L146.93-6.05Q146.93-7.15 146.41-8 145.88-8.85 145.03-9.45 144.18-10.05 143.16-10.5 142.13-10.95 141.08-11.35L141.08-11.35Q139.73-11.85 138.36-12.4 136.98-12.95 135.88-13.73 134.78-14.5 134.11-15.58 133.43-16.65 133.43-18.2L133.43-18.2Q133.43-19.5 133.93-20.68 134.43-21.85 135.43-22.73 136.43-23.6 137.86-24.1 139.28-24.6 141.18-24.6L141.18-24.6Q143.08-24.6 144.91-23.9 146.73-23.2 148.03-22.1L148.03-22.1 146.83-20.55Q145.63-21.45 144.28-22.08 142.93-22.7 141.08-22.7L141.08-22.7Q139.68-22.7 138.68-22.33 137.68-21.95 137.01-21.35 136.33-20.75 136.01-19.95 135.68-19.15 135.68-18.35L135.68-18.35Q135.68-17.3 136.16-16.57 136.63-15.85 137.43-15.3 138.23-14.75 139.26-14.33 140.28-13.9 141.33-13.5L141.33-13.5Q142.73-12.95 144.13-12.4 145.53-11.85 146.66-11.05 147.78-10.25 148.48-9.08 149.18-7.9 149.18-6.15L149.18-6.15Q149.18-4.8 148.66-3.58 148.13-2.35 147.08-1.43 146.03-0.5 144.53 0.05 143.03 0.6 141.08 0.6ZM174.28 0.6L174.28 0.6Q172.13 0.6 170.18-0.25 168.23-1.1 166.75-2.7 165.28-4.3 164.4-6.63 163.53-8.95 163.53-11.95L163.53-11.95Q163.53-14.95 164.4-17.32 165.28-19.7 166.75-21.3 168.23-22.9 170.18-23.75 172.13-24.6 174.28-24.6L174.28-24.6Q176.43-24.6 178.4-23.75 180.38-22.9 181.85-21.3 183.33-19.7 184.2-17.32 185.08-14.95 185.08-11.95L185.08-11.95Q185.08-8.95 184.2-6.63 183.33-4.3 181.85-2.7 180.38-1.1 178.4-0.25 176.43 0.6 174.28 0.6ZM174.28-1.35L174.28-1.35Q176.08-1.35 177.65-2.13 179.23-2.9 180.35-4.3 181.48-5.7 182.13-7.65 182.78-9.6 182.78-11.95L182.78-11.95Q182.78-14.35 182.13-16.3 181.48-18.25 180.35-19.68 179.23-21.1 177.65-21.88 176.08-22.65 174.28-22.65L174.28-22.65Q172.48-22.65 170.93-21.88 169.38-21.1 168.25-19.68 167.13-18.25 166.48-16.3 165.83-14.35 165.83-11.95L165.83-11.95Q165.83-9.6 166.48-7.65 167.13-5.7 168.25-4.3 169.38-2.9 170.93-2.13 172.48-1.35 174.28-1.35ZM194.48 0L192.28 0 192.28-24 194.18-24 194.38-20.3 194.53-20.3Q196.38-22.15 198.33-23.38 200.28-24.6 202.78-24.6L202.78-24.6Q206.53-24.6 208.28-22.35 210.03-20.1 210.03-15.4L210.03-15.4 210.03 0 207.83 0 207.83-15.1Q207.83-18.95 206.55-20.78 205.28-22.6 202.33-22.6L202.33-22.6Q200.18-22.6 198.43-21.48 196.68-20.35 194.48-18.1L194.48-18.1 194.48 0ZM227.92 10.95L227.92 10.95Q226.57 10.95 225.47 10.45L225.47 10.45 225.97 8.5Q226.37 8.65 226.87 8.78 227.37 8.9 227.92 8.9L227.92 8.9Q230.17 8.9 231.67 7.1 233.17 5.3 234.07 2.55L234.07 2.55 234.72 0.45 224.87-24 227.27-24 233.07-8.9Q233.62-7.4 234.3-5.6 234.97-3.8 235.67-2.2L235.67-2.2 235.87-2.2Q236.42-3.8 237-5.6 237.57-7.4 238.07-8.9L238.07-8.9 243.22-24 245.47-24 235.97 3Q235.47 4.5 234.75 5.95 234.02 7.4 233.05 8.5 232.07 9.6 230.8 10.28 229.52 10.95 227.92 10.95ZM259.42 0.6L259.42 0.6Q257.27 0.6 255.32-0.25 253.37-1.1 251.89-2.7 250.42-4.3 249.54-6.63 248.67-8.95 248.67-11.95L248.67-11.95Q248.67-14.95 249.54-17.32 250.42-19.7 251.89-21.3 253.37-22.9 255.32-23.75 257.27-24.6 259.42-24.6L259.42-24.6Q261.57-24.6 263.54-23.75 265.52-22.9 266.99-21.3 268.47-19.7 269.34-17.32 270.22-14.95 270.22-11.95L270.22-11.95Q270.22-8.95 269.34-6.63 268.47-4.3 266.99-2.7 265.52-1.1 263.54-0.25 261.57 0.6 259.42 0.6ZM259.42-1.35L259.42-1.35Q261.22-1.35 262.79-2.13 264.37-2.9 265.49-4.3 266.62-5.7 267.27-7.65 267.92-9.6 267.92-11.95L267.92-11.95Q267.92-14.35 267.27-16.3 266.62-18.25 265.49-19.68 264.37-21.1 262.79-21.88 261.22-22.65 259.42-22.65L259.42-22.65Q257.62-22.65 256.07-21.88 254.52-21.1 253.39-19.68 252.27-18.25 251.62-16.3 250.97-14.35 250.97-11.95L250.97-11.95Q250.97-9.6 251.62-7.65 252.27-5.7 253.39-4.3 254.52-2.9 256.07-2.13 257.62-1.35 259.42-1.35ZM284.31 0.6L284.31 0.6Q280.56 0.6 278.81-1.65 277.06-3.9 277.06-8.6L277.06-8.6 277.06-24 279.26-24 279.26-8.9Q279.26-5.05 280.54-3.23 281.81-1.4 284.71-1.4L284.71-1.4Q286.87-1.4 288.62-2.58 290.37-3.75 292.46-6.3L292.46-6.3 292.46-24 294.67-24 294.67 0 292.81 0 292.56-4 292.46-4Q290.71-1.9 288.76-0.65 286.81 0.6 284.31 0.6Z" opacity="1" transform="matrix(1,0,0,1,0,0)" fill="#ffffff" class="slogan-text-1" data-fill-palette-color="secondary" id="text-1"></path></svg></g></svg></g></svg></g></svg></g><g><svg viewBox="0 0 217.7246404489206 217.7246404489206" height="217.7246404489206" width="217.7246404489206"><g><svg></svg></g><g id="icon-0"><svg viewBox="0 0 217.7246404489206 217.7246404489206" height="217.7246404489206" width="217.7246404489206"><g><path d="M0 108.862c0-60.123 48.739-108.862 108.862-108.862 60.123 0 108.862 48.739 108.863 108.862 0 60.123-48.739 108.862-108.863 108.863-60.123 0-108.862-48.739-108.862-108.863zM108.862 209.779c55.735 0 100.917-45.182 100.917-100.917 0-55.735-45.182-100.917-100.917-100.916-55.735 0-100.917 45.182-100.916 100.916 0 55.735 45.182 100.917 100.916 100.917z" data-fill-palette-color="tertiary" fill="#ffffff" stroke="transparent"></path></g><g transform="matrix(1,0,0,1,50.50794208058399,47.739698544708006)"><svg viewBox="0 0 116.70875628775264 122.2452433595046" height="122.2452433595046" width="116.70875628775264"><g><svg version="1.0" xmlns="http://www.w3.org/2000/svg" xmlns:xlink="http://www.w3.org/1999/xlink" x="0" y="0" viewBox="0 0 95.471 100" enable-background="new 0 0 95.471 100" xml:space="preserve" width="116.70875628775264" height="122.2452433595046" class="icon-cg-0" data-fill-palette-color="accent" id="cg-0"><path d="M47.735 0c-0.083 2.825-1.738 13.412-19.799 30.934C10.554 47.797 2.439 49.824 0 50c2.439 0.178 10.554 2.204 27.936 19.066C45.997 86.589 47.652 97.177 47.735 100c0.083-2.823 1.739-13.411 19.798-30.934C84.917 52.204 93.031 50.178 95.471 50c-2.439-0.176-10.554-2.203-27.938-19.066C49.475 13.412 47.819 2.825 47.735 0z" fill="#ffffff" data-fill-palette-color="accent"></path></svg></g></svg></g></svg></g></svg></g></svg></g><defs></defs></svg><rect width="395.52" height="131.50351292558176" fill="none" stroke="none" visibility="hidden"></rect></g></svg></g></svg>